<svg xmlns="http://www.w3.org/2000/svg" data-name="Capa 1" viewBox="0 0 50 62.5" x="0px" y="0px"><path d="M2.5,6.72A1.88,1.88,0,0,1,4.39,4.83H8a4.4,4.4,0,0,1,4,2.52H44.35a3.15,3.15,0,0,1,3,4l-3.23,12a5.68,5.68,0,0,1-5.48,4.2H16l.43,2.25a1.88,1.88,0,0,0,1.85,1.53H41a1.9,1.9,0,0,1,0,3.79H18.23a5.68,5.68,0,0,1-5.57-4.61L8.6,9.12A.63.63,0,0,0,8,8.61H4.39A1.88,1.88,0,0,1,2.5,6.72ZM12.59,41.39a3.78,3.78,0,1,1,3.78,3.78,3.78,3.78,0,0,1-3.78-3.78Zm26.47-3.78a3.78,3.78,0,0,1,0,7.56h0a3.78,3.78,0,0,1,0-7.56Z"/></svg>