<svg xmlns="http://www.w3.org/2000/svg" data-name="Layer 1" viewBox="0 0 1024 1280" x="0px" y="0px"><path fill="#000000" d="M734.22772149 247.00801581L518.16928396 463.06645333 302.11084643 247.00801581c-11.13302914-11.13302914-29.12711111-11.13302914-40.26014025 0-11.13302914 11.13302914-11.13302914 29.12711111 0 40.26014024l216.05843753 216.05843753-216.05843753 215.9289837c-11.13302914 11.13302914-11.13302914 29.12711111 0 40.26014025 11.13302914 11.13302914 29.12711111 11.13302914 40.26014025 0l216.05843753-216.05843753 216.05843753 216.05843753c11.13302914 11.13302914 29.12711111 11.13302914 40.26014025 0 11.13302914-11.13302914 11.13302914-29.12711111 0-40.26014025L558.4294242 503.32659358l216.05843754-216.05843753c11.13302914-11.13302914 11.13302914-29.12711111 0-40.26014024-11.13302914-11.13302914-29.12711111-11.13302914-40.26014025 0z"/></svg>