<svg xmlns="http://www.w3.org/2000/svg" data-name="Layer 1" viewBox="0 0 100 125" x="0px" y="0px"><defs><style>.cls-1{fill-rule:evenodd;}</style></defs><title>a</title><path class="cls-1" d="M81.66,94.753a9.842,9.842,0,0,1-4.128.055A84.055,84.055,0,0,1,9.378,15.277,9.852,9.852,0,0,1,20.137,5.039l15.58,1.316a6.369,6.369,0,0,1,5.84,6.319A51.4,51.4,0,0,0,43.9,27.715a6.266,6.266,0,0,1-1.972,6.773L39.905,36.2a6.608,6.608,0,0,0-.785,9.28L52.013,60.751a6.609,6.609,0,0,0,9.28.786l2.271-1.918a6.243,6.243,0,0,1,6.932-.848,51.367,51.367,0,0,0,7.189,2.886,51.714,51.714,0,0,0,7.555,1.787,6.37,6.37,0,0,1,5.366,6.831L89.288,85.883a10.077,10.077,0,0,1-7.628,8.87Zm-3.628-2.614a7.122,7.122,0,0,0,8.544-6.479l1.318-15.608a3.642,3.642,0,0,0-3.069-3.928,54.6,54.6,0,0,1-7.959-1.872A54.105,54.105,0,0,1,69.3,61.206a3.554,3.554,0,0,0-3.976.487l-2.206,1.862a1.245,1.245,0,0,1-.143.12A9.314,9.314,0,0,1,50,62.577a1.455,1.455,0,0,1-.12-.142l-12.834-15.2a9.315,9.315,0,0,1,1.105-13.108l2.025-1.71a3.536,3.536,0,0,0,1.133-3.892,54.338,54.338,0,0,1-2.464-15.839,3.631,3.631,0,0,0-3.352-3.617L19.914,7.751a7.134,7.134,0,0,0-7.825,7.441A81.346,81.346,0,0,0,78.032,92.139Z"/></svg>